<svg xmlns="http://www.w3.org/2000/svg" width="92" height="92" viewBox="0 0 92 92" fill="none">
<g clip-path="url(#clip0_0_18465)">
<circle cx="46" cy="46" r="45.1467" fill="#D9EA00" stroke="url(#paint0_linear_0_18465)" stroke-width="1.70667"/>
<path d="M21.2594 59.0026C20.2456 59.0026 19.3413 58.778 18.5464 58.3287C17.7631 57.8794 17.1525 57.217 16.7148 56.3415C16.277 55.466 16.0581 54.4004 16.0581 53.1447C16.0581 51.9121 16.2885 50.858 16.7493 49.9825C17.2101 49.107 17.8668 48.433 18.7192 47.9607C19.5832 47.4884 20.597 47.2522 21.7605 47.2522C23.0508 47.2522 24.0933 47.4884 24.8882 47.9607C25.6831 48.4215 26.2994 49.1588 26.7372 50.1726L23.9896 51.2612C23.8399 50.6737 23.5749 50.2474 23.1948 49.9825C22.8146 49.7175 22.3423 49.585 21.7778 49.585C21.2133 49.585 20.7295 49.7233 20.3263 49.9998C19.9231 50.2647 19.6178 50.6622 19.4104 51.1921C19.2031 51.7105 19.0994 52.3556 19.0994 53.1274C19.0994 53.9338 19.2031 54.6078 19.4104 55.1492C19.6293 55.6906 19.9461 56.0938 20.3608 56.3588C20.7871 56.6122 21.3112 56.739 21.9333 56.739C22.2674 56.739 22.5727 56.6986 22.8492 56.618C23.1256 56.5374 23.3676 56.4222 23.5749 56.2724C23.7823 56.1111 23.9436 55.9153 24.0588 55.6849C24.174 55.443 24.2316 55.1607 24.2316 54.8382V54.6654H21.6223V52.6782H26.7544V58.8298H24.7327L24.508 56.1514L24.9919 56.5662C24.75 57.3495 24.3122 57.9543 23.6786 58.3806C23.0565 58.7953 22.2501 59.0026 21.2594 59.0026ZM33.6432 53.3521C33.6432 52.9489 33.528 52.6321 33.2976 52.4017C33.0787 52.1598 32.7792 52.0388 32.3991 52.0388C32.0189 52.0388 31.6906 52.1367 31.4141 52.3326C31.1491 52.5169 30.9648 52.851 30.8611 53.3348L28.3728 52.7473C28.5341 51.9178 28.9603 51.2554 29.6515 50.7601C30.3427 50.2647 31.3162 50.017 32.5719 50.017C33.4128 50.017 34.1271 50.1438 34.7146 50.3972C35.3136 50.6391 35.7687 51.0078 36.0797 51.5031C36.4023 51.987 36.5635 52.586 36.5635 53.3002V56.4625C36.5635 56.9118 36.7651 57.1364 37.1683 57.1364C37.3757 57.1364 37.5427 57.1134 37.6695 57.0673L37.4967 58.7434C37.1511 58.9047 36.7306 58.9854 36.2352 58.9854C35.7859 58.9854 35.3885 58.9162 35.0429 58.778C34.6973 58.6282 34.4266 58.4094 34.2307 58.1214C34.0349 57.8218 33.937 57.4474 33.937 56.9982V56.8945L34.2653 56.7735C34.2653 57.2689 34.1155 57.6836 33.816 58.0177C33.528 58.3518 33.1479 58.5994 32.6755 58.7607C32.2147 58.922 31.7309 59.0026 31.224 59.0026C30.6365 59.0026 30.1239 58.9105 29.6861 58.7262C29.2483 58.5418 28.9085 58.2769 28.6666 57.9313C28.4362 57.5742 28.321 57.1364 28.321 56.618C28.321 55.9959 28.5053 55.4833 28.8739 55.0801C29.2541 54.6654 29.8474 54.3774 30.6538 54.2161L33.9197 53.5422L33.9024 55.0974L32.2435 55.443C31.8979 55.5121 31.6387 55.6158 31.4659 55.754C31.3047 55.8807 31.224 56.0766 31.224 56.3415C31.224 56.595 31.3162 56.785 31.5005 56.9118C31.6848 57.0385 31.9037 57.1018 32.1571 57.1018C32.353 57.1018 32.5373 57.073 32.7101 57.0154C32.8944 56.9578 33.0557 56.8714 33.1939 56.7562C33.3322 56.6295 33.4416 56.474 33.5223 56.2897C33.6029 56.1054 33.6432 55.8865 33.6432 55.633V53.3521ZM41.732 46.5265V55.8922C41.732 56.2724 41.7954 56.5431 41.9221 56.7044C42.0488 56.8657 42.2619 56.9463 42.5615 56.9463C42.7343 56.9463 42.8783 56.9348 42.9935 56.9118C43.1087 56.8887 43.2469 56.8542 43.4082 56.8081L43.2181 58.5706C43.0107 58.6974 42.74 58.801 42.4059 58.8817C42.0719 58.9623 41.7435 59.0026 41.421 59.0026C40.4994 59.0026 39.8312 58.7895 39.4165 58.3633C39.0018 57.937 38.7944 57.2401 38.7944 56.2724V46.5265H41.732ZM48.6984 59.0026C47.7423 59.0026 46.9128 58.8241 46.2101 58.467C45.5189 58.1098 44.9832 57.5972 44.6031 56.929C44.2229 56.2609 44.0328 55.4545 44.0328 54.5098C44.0328 53.5652 44.2229 52.7588 44.6031 52.0906C44.9832 51.4225 45.5131 50.9098 46.1928 50.5527C46.884 50.1956 47.6731 50.017 48.5602 50.017C49.4703 50.017 50.2421 50.1956 50.8757 50.5527C51.5208 50.8983 52.0104 51.3822 52.3445 52.0042C52.6786 52.6148 52.8456 53.3175 52.8456 54.1124C52.8456 54.3198 52.8399 54.5271 52.8283 54.7345C52.8168 54.9418 52.7995 55.1146 52.7765 55.2529H45.9336V53.6804H51.4805L50.0808 54.2161C50.0808 53.5249 49.9541 52.995 49.7007 52.6263C49.4587 52.2577 49.0786 52.0734 48.5602 52.0734C48.1915 52.0734 47.8747 52.1598 47.6098 52.3326C47.3563 52.5054 47.1605 52.7761 47.0223 53.1447C46.8955 53.5134 46.8322 53.9857 46.8322 54.5617C46.8322 55.1262 46.9071 55.587 47.0568 55.9441C47.2066 56.2897 47.4197 56.5431 47.6962 56.7044C47.9727 56.8542 48.3067 56.929 48.6984 56.929C49.1362 56.929 49.4818 56.8426 49.7352 56.6698C50.0002 56.497 50.196 56.2551 50.3227 55.9441L52.6728 56.7217C52.5115 57.217 52.2293 57.6375 51.8261 57.9831C51.4344 58.3172 50.9621 58.5706 50.4091 58.7434C49.8677 58.9162 49.2975 59.0026 48.6984 59.0026ZM48.3355 46.0772H51.0658L49.3205 49.0666H47.1778L48.3355 46.0772ZM54.489 58.8298V50.1898H57.081L57.2019 52.0561C57.4208 51.411 57.7434 50.9098 58.1696 50.5527C58.6074 50.1956 59.1603 50.017 59.8285 50.017C60.0474 50.017 60.2317 50.0343 60.3815 50.0689C60.5427 50.1034 60.6695 50.1495 60.7616 50.2071L60.4679 52.6263C60.3527 52.5802 60.2029 52.5457 60.0186 52.5226C59.8458 52.4881 59.6327 52.4708 59.3792 52.4708C59.0336 52.4708 58.7111 52.5457 58.4115 52.6954C58.112 52.8452 57.8701 53.0698 57.6858 53.3694C57.513 53.6574 57.4266 54.026 57.4266 54.4753V58.8298H54.489ZM63.3828 49.1876C62.7837 49.1876 62.346 49.0782 62.0695 48.8593C61.8045 48.6289 61.6721 48.2718 61.6721 47.7879C61.6721 47.2926 61.8045 46.9354 62.0695 46.7166C62.346 46.4862 62.7837 46.371 63.3828 46.371C63.9703 46.371 64.4023 46.4862 64.6788 46.7166C64.9553 46.9354 65.0935 47.2926 65.0935 47.7879C65.0935 48.2718 64.9553 48.6289 64.6788 48.8593C64.4023 49.0782 63.9703 49.1876 63.3828 49.1876ZM64.8516 50.1898V58.8298H61.914V50.1898H64.8516ZM71.7638 53.3521C71.7638 52.9489 71.6486 52.6321 71.4182 52.4017C71.1994 52.1598 70.8998 52.0388 70.5197 52.0388C70.1395 52.0388 69.8112 52.1367 69.5347 52.3326C69.2698 52.5169 69.0854 52.851 68.9818 53.3348L66.4934 52.7473C66.6547 51.9178 67.081 51.2554 67.7722 50.7601C68.4634 50.2647 69.4368 50.017 70.6925 50.017C71.5334 50.017 72.2477 50.1438 72.8352 50.3972C73.4342 50.6391 73.8893 51.0078 74.2003 51.5031C74.5229 51.987 74.6842 52.586 74.6842 53.3002V56.4625C74.6842 56.9118 74.8858 57.1364 75.289 57.1364C75.4963 57.1364 75.6634 57.1134 75.7901 57.0673L75.6173 58.7434C75.2717 58.9047 74.8512 58.9854 74.3558 58.9854C73.9066 58.9854 73.5091 58.9162 73.1635 58.778C72.8179 58.6282 72.5472 58.4094 72.3514 58.1214C72.1555 57.8218 72.0576 57.4474 72.0576 56.9982V56.8945L72.3859 56.7735C72.3859 57.2689 72.2362 57.6836 71.9366 58.0177C71.6486 58.3518 71.2685 58.5994 70.7962 58.7607C70.3354 58.922 69.8515 59.0026 69.3446 59.0026C68.7571 59.0026 68.2445 58.9105 67.8067 58.7262C67.369 58.5418 67.0291 58.2769 66.7872 57.9313C66.5568 57.5742 66.4416 57.1364 66.4416 56.618C66.4416 55.9959 66.6259 55.4833 66.9946 55.0801C67.3747 54.6654 67.968 54.3774 68.7744 54.2161L72.0403 53.5422L72.023 55.0974L70.3642 55.443C70.0186 55.5121 69.7594 55.6158 69.5866 55.754C69.4253 55.8807 69.3446 56.0766 69.3446 56.3415C69.3446 56.595 69.4368 56.785 69.6211 56.9118C69.8054 57.0385 70.0243 57.1018 70.2778 57.1018C70.4736 57.1018 70.6579 57.073 70.8307 57.0154C71.015 56.9578 71.1763 56.8714 71.3146 56.7562C71.4528 56.6295 71.5622 56.474 71.6429 56.2897C71.7235 56.1054 71.7638 55.8865 71.7638 55.633V53.3521Z" fill="#1A234A"/>
<path d="M57.7851 20.1692C59.6534 20.4986 60.9009 22.2802 60.5714 24.1485L59.0737 32.6424C58.7443 34.5107 56.9627 35.7582 55.0944 35.4288L53.0758 35.0728L53.2702 33.9698L55.2889 34.3258C56.548 34.5478 57.7487 33.7071 57.9707 32.448L59.4685 23.954C59.6905 22.6949 58.8497 21.4942 57.5906 21.2722L44.3778 18.9424C43.1187 18.7204 41.918 19.5611 41.696 20.8202L41.3225 22.9384L40.2195 22.7439L40.593 20.6257C40.9224 18.7575 42.704 17.51 44.5723 17.8394L57.7851 20.1692Z" fill="#9AA819"/>
<path d="M59.2481 27.0623L59.6088 28.1226L53.3035 30.2673L52.9429 29.2069L59.2481 27.0623Z" fill="#9AA819"/>
<circle cx="54.4131" cy="25.4954" r="1.4375" transform="rotate(10 54.4131 25.4954)" fill="#9AA819"/>
<path fill-rule="evenodd" clip-rule="evenodd" d="M53.6667 25.2015C53.6667 23.611 52.3772 22.3215 50.7867 22.3215H37.38C35.7894 22.3215 34.5 23.611 34.5 25.2015V33.8165C34.5 35.4071 35.7894 36.6965 37.38 36.6965H50.7867C52.3772 36.6965 53.6667 35.4071 53.6667 33.8165V25.2015ZM37.38 23.4415H50.7867C51.7587 23.4415 52.5467 24.2295 52.5467 25.2015V33.8165C52.5467 34.7886 51.7587 35.5765 50.7867 35.5765H37.38C36.408 35.5765 35.62 34.7886 35.62 33.8165V25.2015C35.62 24.2295 36.408 23.4415 37.38 23.4415Z" fill="#1A234A"/>
<path d="M41.7125 25.3494L42.104 25.7765L47.425 31.5821L52.8825 28.9577L53.3679 29.9671L47.536 32.7718L47.1614 32.9519L46.8805 32.6455L41.6698 26.9597L35.3428 33.1696L34.5583 32.3702L41.299 25.7552L41.7125 25.3494Z" fill="#1A234A"/>
<circle cx="48.3958" cy="27.5924" r="1.4375" fill="#1A234A"/>
</g>
<defs>
<linearGradient id="paint0_linear_0_18465" x1="-15.5536" y1="11.5721" x2="7.5906" y2="100.883" gradientUnits="userSpaceOnUse">
<stop stop-color="#CFE000"/>
<stop offset="1" stop-color="#B4C200"/>
</linearGradient>
<clipPath id="clip0_0_18465">
<rect width="92" height="92" fill="white"/>
</clipPath>
</defs>
</svg>