<svg xmlns="http://www.w3.org/2000/svg" width="115" height="115" viewBox="0 0 115 115" fill="none">
<g clip-path="url(#clip0_0_18096)">
<circle cx="57.5" cy="57.5" r="56.4333" fill="#D9EA00" stroke="url(#paint0_linear_0_18096)" stroke-width="2.13333"/>
<path d="M26.5742 74.5034C25.307 74.5034 24.1766 74.2226 23.183 73.661C22.2038 73.0994 21.4406 72.2714 20.8934 71.177C20.3462 70.0826 20.0726 68.7506 20.0726 67.181C20.0726 65.6402 20.3606 64.3226 20.9366 63.2282C21.5126 62.1338 22.3334 61.2914 23.399 60.701C24.479 60.1106 25.7462 59.8154 27.2006 59.8154C28.8134 59.8154 30.1166 60.1106 31.1102 60.701C32.1038 61.277 32.8742 62.1986 33.4214 63.4658L29.987 64.8266C29.7998 64.0922 29.4686 63.5594 28.9934 63.2282C28.5182 62.897 27.9278 62.7314 27.2222 62.7314C26.5166 62.7314 25.9118 62.9042 25.4078 63.2498C24.9038 63.581 24.5222 64.0778 24.263 64.7402C24.0038 65.3882 23.8742 66.1946 23.8742 67.1594C23.8742 68.1674 24.0038 69.0098 24.263 69.6866C24.5366 70.3634 24.9326 70.8674 25.451 71.1986C25.9838 71.5154 26.639 71.6738 27.4166 71.6738C27.8342 71.6738 28.2158 71.6234 28.5614 71.5226C28.907 71.4218 29.2094 71.2778 29.4686 71.0906C29.7278 70.889 29.9294 70.6442 30.0734 70.3562C30.2174 70.0538 30.2894 69.701 30.2894 69.2978V69.0818H27.0278V66.5978H33.443V74.2874H30.9158L30.635 70.9394L31.2398 71.4578C30.9374 72.437 30.3902 73.193 29.5982 73.7258C28.8206 74.2442 27.8126 74.5034 26.5742 74.5034ZM42.054 67.4402C42.054 66.9362 41.91 66.5402 41.622 66.2522C41.3484 65.9498 40.974 65.7986 40.4988 65.7986C40.0236 65.7986 39.6132 65.921 39.2676 66.1658C38.9364 66.3962 38.706 66.8138 38.5764 67.4186L35.466 66.6842C35.6676 65.6474 36.2004 64.8194 37.0644 64.2002C37.9284 63.581 39.1452 63.2714 40.7148 63.2714C41.766 63.2714 42.6588 63.4298 43.3932 63.7466C44.142 64.049 44.7108 64.5098 45.0996 65.129C45.5028 65.7338 45.7044 66.4826 45.7044 67.3754V71.3282C45.7044 71.8898 45.9564 72.1706 46.4604 72.1706C46.7196 72.1706 46.9284 72.1418 47.0868 72.0842L46.8708 74.1794C46.4388 74.381 45.9132 74.4818 45.294 74.4818C44.7324 74.4818 44.2356 74.3954 43.8036 74.2226C43.3716 74.0354 43.0332 73.7618 42.7884 73.4018C42.5436 73.0274 42.4212 72.5594 42.4212 71.9978V71.8682L42.8316 71.717C42.8316 72.3362 42.6444 72.8546 42.27 73.2722C41.91 73.6898 41.4348 73.9994 40.8444 74.201C40.2684 74.4026 39.6636 74.5034 39.03 74.5034C38.2956 74.5034 37.6548 74.3882 37.1076 74.1578C36.5604 73.9274 36.1356 73.5962 35.8332 73.1642C35.5452 72.7178 35.4012 72.1706 35.4012 71.5226C35.4012 70.745 35.6316 70.1042 36.0924 69.6002C36.5676 69.0818 37.3092 68.7218 38.3172 68.5202L42.3996 67.6778L42.378 69.6218L40.3044 70.0538C39.8724 70.1402 39.5484 70.2698 39.3324 70.4426C39.1308 70.601 39.03 70.8458 39.03 71.177C39.03 71.4938 39.1452 71.7314 39.3756 71.8898C39.606 72.0482 39.8796 72.1274 40.1964 72.1274C40.4412 72.1274 40.6716 72.0914 40.8876 72.0194C41.118 71.9474 41.3196 71.8394 41.4924 71.6954C41.6652 71.537 41.802 71.3426 41.9028 71.1122C42.0036 70.8818 42.054 70.6082 42.054 70.2914V67.4402ZM52.165 58.9082V70.6154C52.165 71.0906 52.2442 71.429 52.4026 71.6306C52.561 71.8322 52.8274 71.933 53.2018 71.933C53.4178 71.933 53.5978 71.9186 53.7418 71.8898C53.8858 71.861 54.0586 71.8178 54.2602 71.7602L54.0226 73.9634C53.7634 74.1218 53.425 74.2514 53.0074 74.3522C52.5898 74.453 52.1794 74.5034 51.7762 74.5034C50.6242 74.5034 49.789 74.237 49.2706 73.7042C48.7522 73.1714 48.493 72.3002 48.493 71.0906V58.9082H52.165ZM60.873 74.5034C59.6778 74.5034 58.641 74.2802 57.7626 73.8338C56.8986 73.3874 56.229 72.7466 55.7538 71.9114C55.2786 71.0762 55.041 70.0682 55.041 68.8874C55.041 67.7066 55.2786 66.6986 55.7538 65.8634C56.229 65.0282 56.8914 64.3874 57.741 63.941C58.605 63.4946 59.5914 63.2714 60.7002 63.2714C61.8378 63.2714 62.8026 63.4946 63.5946 63.941C64.401 64.373 65.013 64.9778 65.4306 65.7554C65.8482 66.5186 66.057 67.397 66.057 68.3906C66.057 68.6498 66.0498 68.909 66.0354 69.1682C66.021 69.4274 65.9994 69.6434 65.9706 69.8162H57.417V67.8506H64.3506L62.601 68.5202C62.601 67.6562 62.4426 66.9938 62.1258 66.533C61.8234 66.0722 61.3482 65.8418 60.7002 65.8418C60.2394 65.8418 59.8434 65.9498 59.5122 66.1658C59.1954 66.3818 58.9506 66.7202 58.7778 67.181C58.6194 67.6418 58.5402 68.2322 58.5402 68.9522C58.5402 69.6578 58.6338 70.2338 58.821 70.6802C59.0082 71.1122 59.2746 71.429 59.6202 71.6306C59.9658 71.8178 60.3834 71.9114 60.873 71.9114C61.4202 71.9114 61.8522 71.8034 62.169 71.5874C62.5002 71.3714 62.745 71.069 62.9034 70.6802L65.841 71.6522C65.6394 72.2714 65.2866 72.797 64.7826 73.229C64.293 73.6466 63.7026 73.9634 63.0114 74.1794C62.3346 74.3954 61.6218 74.5034 60.873 74.5034ZM60.4194 58.3466H63.8322L61.6506 62.0834H58.9722L60.4194 58.3466ZM68.1112 74.2874V63.4874H71.3512L71.5024 65.8202C71.776 65.0138 72.1792 64.3874 72.712 63.941C73.2592 63.4946 73.9504 63.2714 74.7856 63.2714C75.0592 63.2714 75.2896 63.293 75.4768 63.3362C75.6784 63.3794 75.8368 63.437 75.952 63.509L75.5848 66.533C75.4408 66.4754 75.2536 66.4322 75.0232 66.4034C74.8072 66.3602 74.5408 66.3386 74.224 66.3386C73.792 66.3386 73.3888 66.4322 73.0144 66.6194C72.64 66.8066 72.3376 67.0874 72.1072 67.4618C71.8912 67.8218 71.7832 68.2826 71.7832 68.8442V74.2874H68.1112ZM79.2284 62.2346C78.4796 62.2346 77.9324 62.0978 77.5868 61.8242C77.2556 61.5362 77.09 61.0898 77.09 60.485C77.09 59.8658 77.2556 59.4194 77.5868 59.1458C77.9324 58.8578 78.4796 58.7138 79.2284 58.7138C79.9628 58.7138 80.5028 58.8578 80.8484 59.1458C81.194 59.4194 81.3668 59.8658 81.3668 60.485C81.3668 61.0898 81.194 61.5362 80.8484 61.8242C80.5028 62.0978 79.9628 62.2346 79.2284 62.2346ZM81.0644 63.4874V74.2874H77.3924V63.4874H81.0644ZM89.7047 67.4402C89.7047 66.9362 89.5607 66.5402 89.2727 66.2522C88.9991 65.9498 88.6247 65.7986 88.1495 65.7986C87.6743 65.7986 87.2639 65.921 86.9183 66.1658C86.5871 66.3962 86.3567 66.8138 86.2271 67.4186L83.1167 66.6842C83.3183 65.6474 83.8511 64.8194 84.7151 64.2002C85.5791 63.581 86.7959 63.2714 88.3655 63.2714C89.4167 63.2714 90.3095 63.4298 91.0439 63.7466C91.7927 64.049 92.3615 64.5098 92.7503 65.129C93.1535 65.7338 93.3551 66.4826 93.3551 67.3754V71.3282C93.3551 71.8898 93.6071 72.1706 94.1111 72.1706C94.3703 72.1706 94.5791 72.1418 94.7375 72.0842L94.5215 74.1794C94.0895 74.381 93.5639 74.4818 92.9447 74.4818C92.3831 74.4818 91.8863 74.3954 91.4543 74.2226C91.0223 74.0354 90.6839 73.7618 90.4391 73.4018C90.1943 73.0274 90.0719 72.5594 90.0719 71.9978V71.8682L90.4823 71.717C90.4823 72.3362 90.2951 72.8546 89.9207 73.2722C89.5607 73.6898 89.0855 73.9994 88.4951 74.201C87.9191 74.4026 87.3143 74.5034 86.6807 74.5034C85.9463 74.5034 85.3055 74.3882 84.7583 74.1578C84.2111 73.9274 83.7863 73.5962 83.4839 73.1642C83.1959 72.7178 83.0519 72.1706 83.0519 71.5226C83.0519 70.745 83.2823 70.1042 83.7431 69.6002C84.2183 69.0818 84.9599 68.7218 85.9679 68.5202L90.0503 67.6778L90.0287 69.6218L87.9551 70.0538C87.5231 70.1402 87.1991 70.2698 86.9831 70.4426C86.7815 70.601 86.6807 70.8458 86.6807 71.177C86.6807 71.4938 86.7959 71.7314 87.0263 71.8898C87.2567 72.0482 87.5303 72.1274 87.8471 72.1274C88.0919 72.1274 88.3223 72.0914 88.5383 72.0194C88.7687 71.9474 88.9703 71.8394 89.1431 71.6954C89.3159 71.537 89.4527 71.3426 89.5535 71.1122C89.6543 70.8818 89.7047 70.6082 89.7047 70.2914V67.4402Z" fill="#1A234A"/>
<rect x="43.825" y="28.602" width="22.5583" height="16.5688" rx="2.9" stroke="#1A234A" stroke-width="1.4"/>
<path d="M43.6882 40.9624L52.114 32.6937L59.1167 40.3339L66.4065 36.828" stroke="#1A234A" stroke-width="1.4"/>
<circle cx="60.4949" cy="34.4905" r="1.79688" fill="#1A234A"/>
<g opacity="0.33">
<path d="M50.9638 28.5514V28.5514L51.4306 25.9037C51.7753 23.9491 53.6392 22.644 55.5938 22.9886L72.1099 25.9008C74.0645 26.2455 75.3696 28.1094 75.025 30.064L73.1528 40.6815C72.8082 42.6361 70.9443 43.9413 68.9896 43.5966L66.4663 43.1517V43.1517" stroke="#1A234A" stroke-width="1.4"/>
<path d="M66.404 37.1713L74.2856 34.4905" stroke="#1A234A" stroke-width="1.4"/>
<circle cx="68.0164" cy="31.8693" r="1.79688" transform="rotate(10 68.0164 31.8693)" fill="#1A234A"/>
</g>
</g>
<defs>
<linearGradient id="paint0_linear_0_18096" x1="-19.442" y1="14.4651" x2="9.48825" y2="126.104" gradientUnits="userSpaceOnUse">
<stop stop-color="#CFE000"/>
<stop offset="1" stop-color="#B4C200"/>
</linearGradient>
<clipPath id="clip0_0_18096">
<rect width="115" height="115" fill="white"/>
</clipPath>
</defs>
</svg>