<svg xmlns="http://www.w3.org/2000/svg" width="227" height="226" viewBox="0 0 227 226" fill="none">
<g filter="url(#filter0_f_213_134)">
<ellipse cx="113.5" cy="113" rx="44.5" ry="44" fill="#D9EA00"/>
</g>
<ellipse cx="117" cy="113.778" rx="42" ry="41.7778" fill="#D9EA00"/>
<path fill-rule="evenodd" clip-rule="evenodd" d="M125.61 97.0163L123.812 97.6707L111.911 92.1599C111.305 91.8836 110.596 92.1414 110.309 92.7428L108.649 96.2754L105.108 94.6358C104.502 94.3595 103.794 94.6173 103.507 95.2187L97.9304 107.091L95.3767 108.02C95.078 108.125 94.8339 108.347 94.6982 108.635C94.5625 108.924 94.5463 109.257 94.653 109.561L102.862 132.114C103.098 132.741 103.789 133.061 104.406 132.829L134.639 121.825C136.503 121.167 137.474 119.1 136.809 117.204L130.242 99.1613C129.532 97.2816 127.461 96.3221 125.61 97.0163ZM111.98 94.8442L120.606 98.8377L117.01 100.147L110.833 97.2869L111.98 94.8442ZM105.178 97.3201L108.716 98.96L113.801 101.315L101.137 105.924L105.178 97.3201ZM130.007 119.68C130.228 120.312 129.904 121 129.284 121.22L104.719 130.161L97.3311 109.863L121.896 100.922C122.513 100.69 123.204 101.01 123.44 101.637L124.672 105.02L121.27 106.258C119.241 106.942 117.749 108.69 117.371 110.826C116.994 112.961 117.79 115.148 119.452 116.541C121.113 117.934 123.38 118.314 125.375 117.534L128.776 116.296L130.007 119.679L130.007 119.68ZM134.543 118.029C134.763 118.661 134.44 119.349 133.819 119.57L132.49 120.053C132.488 119.645 132.415 119.239 132.275 118.855L131.044 115.471L133.311 114.646L134.543 118.028L134.543 118.029ZM132.491 112.391L124.554 115.28C123.359 115.742 122.003 115.511 121.009 114.676C120.015 113.841 119.539 112.533 119.763 111.254C119.988 109.976 120.878 108.928 122.091 108.513L130.028 105.625L132.49 112.391L132.491 112.391ZM129.207 103.368L126.939 104.194L125.708 100.812C125.568 100.427 125.363 100.07 125.102 99.7551L126.431 99.2715C127.048 99.0398 127.739 99.3596 127.976 99.9863L129.207 103.37L129.207 103.368ZM122.611 110.821C123.268 110.598 123.985 110.955 124.218 111.622C124.45 112.288 124.11 113.014 123.456 113.247C122.802 113.479 122.08 113.132 121.838 112.469C121.6 111.793 121.946 111.056 122.611 110.821Z" fill="#1A234A"/>
<defs>
<filter id="filter0_f_213_134" x="0.107864" y="0.107864" width="226.784" height="225.784" filterUnits="userSpaceOnUse" color-interpolation-filters="sRGB">
<feFlood flood-opacity="0" result="BackgroundImageFix"/>
<feBlend mode="normal" in="SourceGraphic" in2="BackgroundImageFix" result="shape"/>
<feGaussianBlur stdDeviation="34.4461" result="effect1_foregroundBlur_213_134"/>
</filter>
</defs>
</svg>