<svg width="84" height="84" viewBox="0 0 84 84" fill="none" xmlns="http://www.w3.org/2000/svg">
<ellipse cx="42" cy="41.7778" rx="42" ry="41.7778" fill="#D9EA00"/>
<path fill-rule="evenodd" clip-rule="evenodd" d="M50.6104 25.0163L48.8124 25.6707L36.9109 20.1599C36.3046 19.8836 35.5963 20.1414 35.3094 20.7428L33.6492 24.2754L30.1084 22.6358C29.5021 22.3595 28.7938 22.6173 28.5069 23.2187L22.9304 35.091L20.3767 36.0205C20.078 36.1253 19.8339 36.3465 19.6982 36.6354C19.5625 36.9243 19.5463 37.2572 19.653 37.5608L27.8617 60.1138C28.0977 60.741 28.7889 61.0611 29.4057 60.8289L59.6395 49.8247C61.503 49.1671 62.4736 47.1004 61.8095 45.2039L55.2425 27.1613C54.5325 25.2816 52.4606 24.3221 50.6104 25.0163ZM36.9801 22.8442L45.606 26.8377L42.0099 28.1466L35.833 25.2869L36.9801 22.8442ZM30.1776 25.3201L33.7161 26.96L38.8009 29.3146L26.1369 33.9239L30.1776 25.3201ZM55.0074 47.6796C55.2276 48.3119 54.9044 49.0001 54.2839 49.2204L29.719 58.1613L22.3311 37.8631L46.896 28.9222C47.5128 28.6905 48.2037 29.0103 48.4404 29.637L49.6717 33.0199L46.2704 34.2578C44.2411 34.9423 42.7489 36.6904 42.3712 38.8257C41.9936 40.961 42.7897 43.1485 44.4516 44.5415C46.1134 45.9344 48.3803 46.3144 50.3747 45.5343L53.776 44.2964L55.0072 47.6792L55.0074 47.6796ZM59.5427 46.0289C59.7629 46.6612 59.4397 47.3494 58.8192 47.5697L57.4904 48.0534C57.488 47.6449 57.4152 47.2393 57.2752 46.8547L56.0436 43.471L58.3113 42.6457L59.5425 46.0285V46.0285L59.5427 46.0289ZM57.4906 40.3909L49.5541 43.2795C48.3586 43.7421 47.0027 43.5114 46.009 42.6764C45.0153 41.8415 44.5389 40.5326 44.7634 39.2542C44.9879 37.9758 45.8783 36.9276 47.0914 36.5135L55.0275 33.625L57.49 40.3906L57.4906 40.3909ZM54.2066 31.3683L51.939 32.1936L50.7081 28.8117C50.5681 28.4271 50.3632 28.0696 50.1025 27.7551L51.4313 27.2715C52.0481 27.0398 52.739 27.3596 52.9757 27.9863L54.2071 31.3696L54.2066 31.3683ZM47.6108 38.8211C48.2679 38.5978 48.9855 38.9554 49.2177 39.6218C49.4499 40.2882 49.1097 41.0138 48.4559 41.2466C47.802 41.4794 47.0796 41.1321 46.8381 40.469C46.6003 39.793 46.9461 39.0555 47.6108 38.8211Z" fill="#1A234A"/>
</svg>
