<svg width="44" height="41" viewBox="0 0 44 41" fill="none" xmlns="http://www.w3.org/2000/svg">
<path fill-rule="evenodd" clip-rule="evenodd" d="M31.6102 5.01639L29.8122 5.67081L17.9107 0.160036C17.3044 -0.116321 16.596 0.141491 16.3092 0.742936L14.649 4.2755L11.1082 2.63594C10.5019 2.35958 9.79354 2.6174 9.5067 3.21884L3.93016 15.0911L1.37641 16.0206C1.07773 16.1254 0.833691 16.3466 0.697983 16.6355C0.562275 16.9244 0.546019 17.2573 0.652792 17.5609L8.86142 40.114C9.09749 40.7411 9.7887 41.0612 10.4054 40.829L40.6392 29.8248C42.5028 29.1673 43.4734 27.1005 42.8092 25.204L36.2422 7.16141C35.5322 5.28169 33.4603 4.32222 31.6102 5.01639ZM17.9799 2.84433L26.6057 6.83787L23.0097 8.14672L16.8327 5.287L17.9799 2.84433ZM11.1774 5.32024L14.7158 6.96015L19.8006 9.31472L7.13663 13.924L11.1774 5.32024ZM36.0072 27.6798C36.2273 28.312 35.9042 29.0003 35.2837 29.2206L10.7188 38.1614L3.33085 17.8632L27.8957 8.92231C28.5125 8.69062 29.2035 9.01041 29.4402 9.63716L30.6714 13.02L27.2702 14.2579C25.2409 14.9424 23.7486 16.6905 23.371 18.8259C22.9933 20.9612 23.7895 23.1486 25.4513 24.5416C27.1132 25.9346 29.38 26.3145 31.3745 25.5344L34.7758 24.2965L36.007 27.6793L36.0072 27.6798ZM40.5424 26.029C40.7626 26.6613 40.4395 27.3496 39.819 27.5698L38.4902 28.0535C38.4878 27.645 38.4149 27.2394 38.275 26.8548L37.0434 23.4711L39.311 22.6458L40.5423 26.0286V26.0286L40.5424 26.029ZM38.4904 20.391L30.5538 23.2797C29.3583 23.7422 28.0025 23.5115 27.0087 22.6766C26.015 21.8416 25.5386 20.5327 25.7632 19.2543C25.9877 17.976 26.8781 16.9277 28.0912 16.5136L36.0273 13.6251L38.4898 20.3907L38.4904 20.391ZM35.2064 11.3684L32.9388 12.1937L31.7078 8.81181C31.5679 8.42724 31.3629 8.06967 31.1022 7.75525L32.431 7.2716C33.0478 7.03991 33.7387 7.3597 33.9755 7.98645L35.2069 11.3697L35.2064 11.3684ZM28.6105 18.8212C29.2676 18.5979 29.9853 18.9555 30.2174 19.6219C30.4496 20.2883 30.1094 21.0139 29.4556 21.2467C28.8018 21.4795 28.0793 21.1323 27.8378 20.4692C27.6001 19.7931 27.9459 19.0557 28.6105 18.8212Z" fill="#1A234A"/>
</svg>
